<svg id="Laag_1" data-name="Laag 1" xmlns="http://www.w3.org/2000/svg" viewBox="0 0 225 97"><defs><style>.cls-1{fill:#474862;}</style></defs><path class="cls-1" d="M0,92C15.78,80.14,30.84,67.15,47.48,56.69,86.12,32.38,128.79,17.87,173.4,9.08c15.93-3.15,32.14-4.92,48.22-7.34,1.14-.18,2.26-.53,3.38-.8v1C209.6,5.27,194,8,178.82,12,126.37,26,78.17,48.58,38,85.68c-8.83,8.14-17.4,11.54-28.7,10.21C5.93,95.5,2.19,96.83,0,93Z"/><path class="cls-1" d="M111.58,93.57a19.51,19.51,0,0,1-3.18,2.15,6.62,6.62,0,0,1-2.47.08c-7.81,0-16.6,2.19-23.19-.67C73.07,90.94,65,83.13,55.5,76.31L71.11,63.9Z"/><path class="cls-1" d="M51.14,49.31c-5.8,3.11-11.11,6.11-16.59,8.77a5,5,0,0,1-2.19.29,4.91,4.91,0,0,1-2.11-.68c-8.57-6-17-12.25-25.43-18.52-.91-.67-1.36-2-2-3C3.91,35.66,5,34.72,6.09,34.7c7.67-.12,15.33-.1,23,0a6,6,0,0,1,3.24.94C38.53,40.05,44.72,44.59,51.14,49.31Z"/></svg>